<svg width="469" height="323" viewBox="0 0 469 323" fill="none" xmlns="http://www.w3.org/2000/svg">
<g clip-path="url(#clip0)">
<path d="M326.527 158.771C368.273 158.771 402.115 124.945 402.115 83.2195C402.115 41.4935 368.273 7.66797 326.527 7.66797C284.781 7.66797 250.939 41.4935 250.939 83.2195C250.939 124.945 284.781 158.771 326.527 158.771Z" fill="#EBEBEB"/>
<path d="M81.2684 210.083C123.015 210.083 156.857 176.258 156.857 134.532C156.857 92.806 123.015 58.9805 81.2684 58.9805C39.5222 58.9805 5.68018 92.806 5.68018 134.532C5.68018 176.258 39.5222 210.083 81.2684 210.083Z" fill="#EBEBEB"/>
<path d="M76.4707 153.749C76.3379 153.842 76.1964 153.931 76.055 154.019H76.0503C66.967 159.431 39.9664 150.866 39.9664 150.866C39.6701 149.92 19.4687 142.199 23.1541 127.796C26.8394 113.389 28.0207 110.294 24.6277 105.872C21.2387 101.45 9.58539 100.716 8.7004 92.1637C7.81542 83.6159 13.567 73.5913 10.7667 69.0232C7.96632 64.4551 0.148453 62.3898 0.0022654 56.0534C-0.147852 49.7123 5.90005 48.094 3.39129 40.8683C1.05544 34.1281 -1.67417 19.8095 5.5283 16.6122C6.04153 16.3821 6.60741 16.2139 7.22753 16.104C16.5183 14.4857 18.4336 37.4801 24.4815 39.3954C30.5295 41.3106 35.9848 44.2596 36.8689 50.4507C37.7539 56.6418 35.8378 65.6319 40.4081 68.5809C44.9784 71.5307 51.7651 71.2346 55.0079 79.7824C58.2508 88.3349 54.5655 94.1497 59.8746 97.9479C65.1837 101.746 78.111 103.303 82.2923 115.34C86.4696 127.381 85.1068 147.788 76.4707 153.749Z" fill="#263238"/>
<path d="M76.4708 153.749C76.3379 153.842 76.1965 153.931 76.055 154.019H76.0503C39.8469 109.068 12.8597 37.2767 5.52832 16.6122C6.04155 16.3821 6.60743 16.2139 7.22755 16.104C16.5183 14.4857 18.4337 37.4801 24.4816 39.3954C30.5295 41.3106 35.9848 44.2596 36.869 50.4507C37.754 56.6418 35.8378 65.6319 40.4081 68.5809C44.9784 71.5307 51.7651 71.2346 55.008 79.7823C58.2508 88.3349 54.5655 94.1497 59.8746 97.9479C65.1837 101.746 78.1111 103.303 82.2923 115.34C86.4697 127.381 85.1068 147.788 76.4708 153.749Z" fill="#455A64"/>
<path d="M8.84961 27.4893C9.73459 28.0784 46.8976 134.149 100.578 178.841" stroke="#F0F7FF" stroke-width="0.5629" stroke-miterlimit="10"/>
<path d="M314.923 152.416C315.046 152.522 315.178 152.624 315.31 152.726L315.314 152.727C320.963 156.918 335.124 155.752 343.973 154.503C349.437 153.731 354.738 152.025 359.538 149.305C365.31 146.033 371.875 140.538 370.583 131.963C368.369 117.258 367.506 114.06 371.327 110.002C375.144 105.943 386.812 106.386 388.554 97.9667C390.296 89.5516 385.584 78.9983 388.831 74.7358C392.078 70.4733 400.064 69.2054 400.847 62.9153C401.636 56.6213 395.782 54.4021 399.006 47.4662C402.009 40.9963 406.167 27.0257 399.324 23.1198C398.837 22.8394 398.29 22.6155 397.685 22.4427C388.605 19.8974 384.382 42.5816 378.172 43.8778C371.962 45.174 366.237 47.559 364.733 53.6298C363.228 59.6999 364.228 68.8377 359.384 71.3115C354.54 73.786 347.817 72.808 343.73 80.9858C339.641 89.1683 342.722 95.3248 337.057 98.5692C331.392 101.814 318.373 102.061 313.001 113.616C307.633 125.175 306.931 145.616 314.923 152.416Z" fill="#455A64"/>
<path d="M314.923 152.416C315.046 152.522 315.178 152.624 315.31 152.726L315.314 152.727C355.863 111.651 389.948 42.9406 399.325 23.1198C398.838 22.8394 398.29 22.6155 397.686 22.4427C388.606 19.8974 384.382 42.5816 378.172 43.8778C371.963 45.174 366.238 47.559 364.733 53.6298C363.229 59.7 364.229 68.8377 359.385 71.3115C354.541 73.786 347.818 72.808 343.73 80.9858C339.642 89.1683 342.723 95.3248 337.058 98.5692C331.393 101.814 318.374 102.061 313.001 113.616C307.632 125.175 306.931 145.616 314.923 152.416Z" fill="#263238"/>
<path d="M394.923 33.6064C393.983 34.1037 346.32 135.892 288.409 174.953" stroke="#F0F7FF" stroke-width="0.5629" stroke-miterlimit="10"/>
<path d="M51.6128 107.641C59.6083 118.426 63.439 130.645 63.101 141.472C54.3495 139.104 45.5138 133.668 38.1816 125.638C41.0896 125.488 45.1404 125.215 45.3291 125.201L35.3663 122.331C34.9215 121.777 34.49 121.214 34.0624 120.638C26.0669 109.852 22.237 97.6337 22.5742 86.8062C31.1246 89.1197 39.7551 94.3633 46.9866 102.094C46.5497 105.689 46.1072 109.709 46.1072 109.709L48.8698 104.203C49.8169 105.303 50.7309 106.451 51.6128 107.641Z" fill="#EBEBEB"/>
<path d="M27.5649 93.5029L68.9847 149.373" stroke="#F0F7FF" stroke-width="0.4963" stroke-miterlimit="10"/>
<path d="M371.448 58.345C365.909 74.2772 355.931 86.9036 344.447 94.2205C340.71 83.4628 340.099 70.4467 343.247 57.1533C345.462 60.0646 348.614 64.0742 348.762 64.2603L344.687 51.8923C344.947 51.0392 345.226 50.1923 345.523 49.3408C351.062 33.4094 361.04 20.7821 372.524 13.4653C376.176 23.9755 376.841 36.6428 373.932 49.6197C369.89 51.7108 365.402 54.099 365.402 54.099L373.077 53.0667C372.604 54.8256 372.06 56.5861 371.448 58.345Z" fill="white"/>
<path d="M369.103 23.3833L340.408 105.918" stroke="#F0F7FF" stroke-width="0.6236" stroke-miterlimit="10"/>
<path d="M158.934 321.496H401.101" stroke="#EBEBEB" stroke-width="3" stroke-miterlimit="10"/>
<path d="M16.3887 321.496H135.413" stroke="#EBEBEB" stroke-width="3" stroke-miterlimit="10"/>
<path d="M98.9845 9.4791L101.691 14.4258C101.723 14.4832 101.77 14.5303 101.827 14.5617L106.776 17.2672C107.013 17.3969 107.013 17.7362 106.776 17.8651L101.827 20.5706C101.77 20.602 101.723 20.6491 101.691 20.7065L98.9845 25.6532C98.8548 25.8897 98.5153 25.8897 98.3864 25.6532L95.6795 20.7065C95.6481 20.6491 95.6009 20.602 95.5436 20.5706L90.5944 17.8651C90.3578 17.7355 90.3578 17.3961 90.5944 17.2672L95.5436 14.5617C95.6009 14.5303 95.6481 14.4832 95.6795 14.4258L98.3864 9.4791C98.5153 9.24264 98.8556 9.24264 98.9845 9.4791Z" fill="#455A64"/>
<path d="M418.221 147.128L420.095 150.553C420.117 150.592 420.15 150.625 420.189 150.646L423.616 152.52C423.779 152.61 423.779 152.845 423.616 152.934L420.189 154.808C420.15 154.83 420.117 154.862 420.095 154.902L418.221 158.327C418.131 158.49 417.896 158.49 417.807 158.327L415.932 154.902C415.91 154.863 415.878 154.83 415.838 154.808L412.411 152.934C412.248 152.845 412.248 152.61 412.411 152.52L415.838 150.646C415.877 150.625 415.91 150.592 415.932 150.553L417.807 147.128C417.896 146.965 418.131 146.965 418.221 147.128Z" fill="#71B219"/>
<path d="M261.399 11.9663L263.274 15.3914C263.296 15.4307 263.328 15.4637 263.367 15.4857L266.794 17.3585C266.958 17.448 266.958 17.6829 266.794 17.7725L263.367 19.646C263.328 19.668 263.295 19.7002 263.274 19.7395L261.399 23.1646C261.31 23.328 261.075 23.328 260.985 23.1646L259.111 19.7395C259.089 19.7002 259.057 19.6672 259.017 19.646L255.59 17.7725C255.427 17.6829 255.427 17.448 255.59 17.3585L259.017 15.4857C259.056 15.4637 259.089 15.4315 259.111 15.3914L260.985 11.9663C261.075 11.8029 261.31 11.8029 261.399 11.9663Z" fill="#71B219"/>
<path d="M365.265 197.833L367.14 201.258C367.162 201.297 367.194 201.33 367.234 201.351L370.661 203.225C370.824 203.314 370.824 203.549 370.661 203.639L367.234 205.511C367.194 205.533 367.162 205.566 367.14 205.606L365.265 209.031C365.175 209.194 364.94 209.194 364.851 209.031L362.976 205.606C362.954 205.566 362.922 205.533 362.883 205.511L359.456 203.639C359.293 203.549 359.293 203.314 359.456 203.225L362.883 201.351C362.922 201.329 362.955 201.297 362.976 201.258L364.851 197.833C364.94 197.669 365.175 197.669 365.265 197.833Z" fill="#455A64"/>
<path d="M187.982 33.0205H147.79C145.196 33.0205 143.093 30.9183 143.093 28.3251V5.36919C143.093 2.77602 145.196 0.673828 147.79 0.673828H187.982C190.576 0.673828 192.679 2.77602 192.679 5.36919V28.3244C192.679 30.9183 190.576 33.0205 187.982 33.0205Z" fill="#71B219"/>
<path d="M155.032 20.6951C157.303 20.6951 159.143 18.8556 159.143 16.5866C159.143 14.3175 157.303 12.478 155.032 12.478C152.762 12.478 150.922 14.3175 150.922 16.5866C150.922 18.8556 152.762 20.6951 155.032 20.6951Z" fill="white"/>
<path d="M167.886 20.6951C170.156 20.6951 171.996 18.8556 171.996 16.5866C171.996 14.3175 170.156 12.478 167.886 12.478C165.616 12.478 163.775 14.3175 163.775 16.5866C163.775 18.8556 165.616 20.6951 167.886 20.6951Z" fill="white"/>
<path d="M180.74 20.6951C183.01 20.6951 184.85 18.8556 184.85 16.5866C184.85 14.3175 183.01 12.478 180.74 12.478C178.47 12.478 176.629 14.3175 176.629 16.5866C176.629 18.8556 178.47 20.6951 180.74 20.6951Z" fill="white"/>
<path d="M350.982 49.1425V228.513C350.982 232.044 348.115 234.91 344.582 234.91H53.4015C49.8686 234.91 47.0015 232.044 47.0015 228.513V49.1425C47.0015 45.6114 49.8686 42.7456 53.4015 42.7456H344.582C348.115 42.7448 350.982 45.6114 350.982 49.1425Z" fill="white"/>
<path d="M350.982 49.1425V71.3074H47.0015V49.1425C47.0015 45.6114 49.8686 42.7456 53.4015 42.7456H344.582C348.115 42.7448 350.982 45.6114 350.982 49.1425Z" fill="#71B219"/>
<path d="M91.0776 209.267H80.9443V229.599H91.0776V209.267Z" fill="#71B219"/>
<path d="M109.98 207.892H99.8467V229.598H109.98V207.892Z" fill="#EBEBEB"/>
<path d="M128.881 201.951H118.748V229.599H128.881V201.951Z" fill="#EBEBEB"/>
<path d="M147.783 201.951H137.649V229.599H147.783V201.951Z" fill="#EBEBEB"/>
<path d="M166.684 201.951H156.551V229.599H166.684V201.951Z" fill="#EBEBEB"/>
<path d="M185.586 201.951H175.453V229.599H185.586V201.951Z" fill="#EBEBEB"/>
<path d="M204.487 191.193H194.354V229.598H204.487V191.193Z" fill="#71B219"/>
<path d="M223.389 201.951H213.255V229.599H223.389V201.951Z" fill="#EBEBEB"/>
<path d="M242.29 196.669H232.157V229.599H242.29V196.669Z" fill="#71B219"/>
<path d="M261.192 201.951H251.059V229.599H261.192V201.951Z" fill="#EBEBEB"/>
<path d="M280.094 209.267H269.96V229.599H280.094V209.267Z" fill="#EBEBEB"/>
<path d="M298.995 194.205H288.862V229.598H298.995V194.205Z" fill="#71B219"/>
<path d="M317.896 209.267H307.763V229.599H317.896V209.267Z" fill="#EBEBEB"/>
<path d="M75.1252 62.8438C78.3394 62.8438 80.9451 60.2393 80.9451 57.0266C80.9451 53.8139 78.3394 51.2095 75.1252 51.2095C71.9109 51.2095 69.3052 53.8139 69.3052 57.0266C69.3052 60.2393 71.9109 62.8438 75.1252 62.8438Z" fill="#455A64"/>
<path d="M99.8463 62.8438C103.061 62.8438 105.666 60.2393 105.666 57.0266C105.666 53.8139 103.061 51.2095 99.8463 51.2095C96.6321 51.2095 94.0264 53.8139 94.0264 57.0266C94.0264 60.2393 96.6321 62.8438 99.8463 62.8438Z" fill="#263238"/>
<path d="M124.568 62.8438C127.782 62.8438 130.388 60.2393 130.388 57.0266C130.388 53.8139 127.782 51.2095 124.568 51.2095C121.354 51.2095 118.748 53.8139 118.748 57.0266C118.748 60.2393 121.354 62.8438 124.568 62.8438Z" fill="white"/>
<path opacity="0.39" d="M76.0151 160.568C76.0151 160.568 89.1264 128.786 116.417 128.786C143.708 128.786 169.37 178.342 205.83 178.342C242.29 178.342 279.776 142.387 322.226 138.826" stroke="#DAE7F2" stroke-width="1.0454" stroke-miterlimit="10"/>
<path d="M76.198 187.031L75.8325 185.502L183.344 159.833L259.925 113.326L260.362 113.8L315.439 173.629L400.642 122.451L462.047 70.7065L463.06 71.9077L401.56 123.733L401.505 123.765L315.15 175.636L259.641 115.338L183.95 161.304L183.829 161.332L76.198 187.031Z" fill="#71B219"/>
<path d="M458.692 67.144L467.103 64.8918C468.222 64.5917 469.247 65.6161 468.947 66.7348L466.693 75.1411C466.393 76.2598 464.994 76.6353 464.174 75.816L458.017 69.6618C457.198 68.8424 457.572 67.4433 458.692 67.144Z" fill="#71B219"/>
<path d="M76.0149 191.194C78.7374 191.194 80.9444 188.988 80.9444 186.266C80.9444 183.545 78.7374 181.339 76.0149 181.339C73.2925 181.339 71.0854 183.545 71.0854 186.266C71.0854 188.988 73.2925 191.194 76.0149 191.194Z" fill="#71B219"/>
<path d="M183.646 165.495C186.369 165.495 188.576 163.289 188.576 160.568C188.576 157.847 186.369 155.641 183.646 155.641C180.924 155.641 178.717 157.847 178.717 160.568C178.717 163.289 180.924 165.495 183.646 165.495Z" fill="#71B219"/>
<path d="M259.783 119.259C262.506 119.259 264.713 117.053 264.713 114.332C264.713 111.611 262.506 109.405 259.783 109.405C257.061 109.405 254.854 111.611 254.854 114.332C254.854 117.053 257.061 119.259 259.783 119.259Z" fill="#71B219"/>
<path d="M315.295 179.56C318.018 179.56 320.225 177.354 320.225 174.633C320.225 171.912 318.018 169.706 315.295 169.706C312.573 169.706 310.366 171.912 310.366 174.633C310.366 177.354 312.573 179.56 315.295 179.56Z" fill="#71B219"/>
<path d="M401.101 128.019C403.823 128.019 406.03 125.813 406.03 123.092C406.03 120.37 403.823 118.165 401.101 118.165C398.378 118.165 396.171 120.37 396.171 123.092C396.171 125.813 398.378 128.019 401.101 128.019Z" fill="#71B219"/>
<path d="M156.482 97.4318C158.333 97.4318 159.833 95.9321 159.833 94.0821C159.833 92.2321 158.333 90.7324 156.482 90.7324C154.631 90.7324 153.131 92.2321 153.131 94.0821C153.131 95.9321 154.631 97.4318 156.482 97.4318Z" fill="#F0F7FF"/>
<path d="M183.054 97.4318C184.905 97.4318 186.406 95.9321 186.406 94.0821C186.406 92.2321 184.905 90.7324 183.054 90.7324C181.204 90.7324 179.703 92.2321 179.703 94.0821C179.703 95.9321 181.204 97.4318 183.054 97.4318Z" fill="#F0F7FF"/>
<path d="M209.627 97.4318C211.478 97.4318 212.978 95.9321 212.978 94.0821C212.978 92.2321 211.478 90.7324 209.627 90.7324C207.776 90.7324 206.275 92.2321 206.275 94.0821C206.275 95.9321 207.776 97.4318 209.627 97.4318Z" fill="#F0F7FF"/>
<path d="M236.199 97.4318C238.05 97.4318 239.55 95.9321 239.55 94.0821C239.55 92.2321 238.05 90.7324 236.199 90.7324C234.348 90.7324 232.848 92.2321 232.848 94.0821C232.848 95.9321 234.348 97.4318 236.199 97.4318Z" fill="#F0F7FF"/>
<path d="M298.518 101.68H278.149C274.822 101.68 272.125 98.9839 272.125 95.6586C272.125 92.3333 274.822 89.6372 278.149 89.6372H298.518C301.845 89.6372 304.543 92.3333 304.543 95.6586C304.543 98.9847 301.845 101.68 298.518 101.68Z" fill="#455A64"/>
<path d="M332.016 100.587H315.348C312.625 100.587 310.418 98.3807 310.418 95.6595C310.418 92.9383 312.625 90.7324 315.348 90.7324H332.016C334.739 90.7324 336.946 92.9383 336.946 95.6595C336.946 98.3807 334.738 100.587 332.016 100.587Z" fill="#263238"/>
<path d="M55.2445 202.26H27.7448C25.9694 202.26 24.5303 200.822 24.5303 199.047V183.34C24.5303 181.566 25.9694 180.127 27.7448 180.127H55.2445C57.02 180.127 58.4591 181.566 58.4591 183.34V199.047C58.4583 200.822 57.0192 202.26 55.2445 202.26Z" fill="#71B219"/>
<path d="M32.7003 193.826C34.2534 193.826 35.5125 192.568 35.5125 191.015C35.5125 189.463 34.2534 188.205 32.7003 188.205C31.1472 188.205 29.8882 189.463 29.8882 191.015C29.8882 192.568 31.1472 193.826 32.7003 193.826Z" fill="white"/>
<path d="M41.4943 193.826C43.0474 193.826 44.3064 192.568 44.3064 191.015C44.3064 189.463 43.0474 188.205 41.4943 188.205C39.9412 188.205 38.6821 189.463 38.6821 191.015C38.6821 192.568 39.9412 193.826 41.4943 193.826Z" fill="white"/>
<path d="M50.2892 193.826C51.8423 193.826 53.1013 192.568 53.1013 191.015C53.1013 189.463 51.8423 188.205 50.2892 188.205C48.7361 188.205 47.4771 189.463 47.4771 191.015C47.4771 192.568 48.7361 193.826 50.2892 193.826Z" fill="white"/>
<path d="M91.1461 241.247V267.935C91.1461 270.342 89.1946 272.292 86.7872 272.292H38.5784C36.1711 272.292 34.2188 270.342 34.2188 267.935V241.247C34.2188 238.841 36.1703 236.89 38.5784 236.89H86.7872C89.1938 236.89 91.1461 238.841 91.1461 241.247Z" fill="#EBEBEB"/>
<path d="M87.9353 258.188V267.935C87.9353 268.571 87.4221 269.084 86.7862 269.084H38.5783C37.9424 269.084 37.4292 268.57 37.4292 267.935V255.936C39.1559 254.871 41.1334 254.152 43.3356 254.152C50.8729 254.152 51.8357 259.209 58.2562 259.209C64.6766 259.209 67.1673 248.621 72.9456 248.621C78.7239 248.621 79.2049 260.248 84.5785 260.248C85.9193 260.248 86.9662 259.427 87.9353 258.188Z" fill="white"/>
<path d="M79.9627 123.206C91.265 123.206 100.427 114.048 100.427 102.752C100.427 91.4548 91.265 82.2969 79.9627 82.2969C68.6604 82.2969 59.498 91.4548 59.498 102.752C59.498 114.048 68.6604 123.206 79.9627 123.206Z" fill="#71B219"/>
<path d="M79.9629 86.9225C80.4599 86.9225 80.8628 86.5198 80.8628 86.023C80.8628 85.5262 80.4599 85.1235 79.9629 85.1235C79.4659 85.1235 79.063 85.5262 79.063 86.023C79.063 86.5198 79.4659 86.9225 79.9629 86.9225Z" fill="white"/>
<path d="M72.2217 88.99C72.6521 88.7416 72.7996 88.1915 72.5511 87.7613C72.3026 87.3311 71.7522 87.1837 71.3218 87.4321C70.8914 87.6805 70.7439 88.2306 70.9924 88.6608C71.2409 89.091 71.7913 89.2384 72.2217 88.99Z" fill="white"/>
<path d="M66.5535 94.6567C66.802 94.2265 66.6546 93.6764 66.2242 93.428C65.7938 93.1796 65.2434 93.327 64.9949 93.7572C64.7464 94.1874 64.8938 94.7375 65.3243 94.9859C65.7547 95.2343 66.305 95.0869 66.5535 94.6567Z" fill="white"/>
<path d="M63.5821 103.295C64.0791 103.295 64.482 102.892 64.482 102.395C64.482 101.898 64.0791 101.496 63.5821 101.496C63.085 101.496 62.6821 101.898 62.6821 102.395C62.6821 102.892 63.085 103.295 63.5821 103.295Z" fill="white"/>
<path d="M66.2237 111.359C66.6541 111.111 66.8016 110.561 66.5531 110.13C66.3045 109.7 65.7542 109.553 65.3238 109.801C64.8934 110.05 64.7459 110.6 64.9944 111.03C65.2429 111.46 65.7933 111.608 66.2237 111.359Z" fill="white"/>
<path d="M72.5491 117.03C72.7976 116.6 72.6502 116.049 72.2198 115.801C71.7894 115.553 71.239 115.7 70.9905 116.13C70.742 116.56 70.8894 117.111 71.3199 117.359C71.7503 117.607 72.3006 117.46 72.5491 117.03Z" fill="white"/>
<path d="M79.9629 119.667C80.4599 119.667 80.8628 119.264 80.8628 118.768C80.8628 118.271 80.4599 117.868 79.9629 117.868C79.4659 117.868 79.063 118.271 79.063 118.768C79.063 119.264 79.4659 119.667 79.9629 119.667Z" fill="white"/>
<path d="M88.6026 117.347C89.033 117.099 89.1805 116.548 88.932 116.118C88.6835 115.688 88.1331 115.541 87.7027 115.789C87.2723 116.037 87.1248 116.588 87.3733 117.018C87.6218 117.448 88.1722 117.595 88.6026 117.347Z" fill="white"/>
<path d="M94.9256 111.038C95.1741 110.607 95.0266 110.057 94.5962 109.809C94.1658 109.56 93.6155 109.708 93.367 110.138C93.1184 110.568 93.2659 111.118 93.6963 111.367C94.1267 111.615 94.6771 111.468 94.9256 111.038Z" fill="white"/>
<path d="M96.3438 103.295C96.8408 103.295 97.2437 102.892 97.2437 102.395C97.2437 101.898 96.8408 101.496 96.3438 101.496C95.8468 101.496 95.4438 101.898 95.4438 102.395C95.4438 102.892 95.8468 103.295 96.3438 103.295Z" fill="white"/>
<path d="M94.5962 94.9851C95.0267 94.7367 95.1741 94.1866 94.9256 93.7564C94.6771 93.3262 94.1267 93.1788 93.6963 93.4272C93.2659 93.6756 93.1184 94.2257 93.367 94.6559C93.6155 95.0861 94.1658 95.2335 94.5962 94.9851Z" fill="white"/>
<path d="M88.931 88.6713C89.1795 88.2411 89.032 87.691 88.6016 87.4426C88.1712 87.1942 87.6208 87.3416 87.3723 87.7718C87.1238 88.202 87.2713 88.7521 87.7017 89.0005C88.1321 89.2489 88.6825 89.1015 88.931 88.6713Z" fill="white"/>
<path d="M74.5522 105.577L79.9627 102.395V91.8896" stroke="white" stroke-width="1.7444" stroke-miterlimit="10" stroke-linecap="round" stroke-linejoin="round"/>
<path d="M137.649 309.45C170.384 309.45 196.921 307.45 196.921 304.983C196.921 302.516 170.384 300.516 137.649 300.516C104.915 300.516 78.3784 302.516 78.3784 304.983C78.3784 307.45 104.915 309.45 137.649 309.45Z" fill="#EBEBEB"/>
<path d="M277.411 289.212H218.62C215.683 289.212 213.302 286.832 213.302 283.896V251.352C213.302 248.416 215.683 246.037 218.62 246.037H277.411C280.348 246.037 282.729 248.416 282.729 251.352V283.896C282.729 286.832 280.348 289.212 277.411 289.212Z" fill="#EBEBEB"/>
<path d="M224.817 262.478H219.811V280.938H224.817V262.478Z" fill="white"/>
<path d="M232.16 264.59H227.154V280.937H232.16V264.59Z" fill="white"/>
<path d="M239.504 267.624H234.497V280.938H239.504V267.624Z" fill="white"/>
<path d="M246.847 264.59H241.841V280.937H246.847V264.59Z" fill="white"/>
<path d="M254.191 261.254H249.184V280.937H254.191V261.254Z" fill="#263238"/>
<path d="M261.534 257.028H256.527V280.938H261.534V257.028Z" fill="#263238"/>
<path d="M268.877 262.478H263.87V280.938H268.877V262.478Z" fill="white"/>
<path d="M276.22 265.814H271.213V280.938H276.22V265.814Z" fill="white"/>
<path d="M379.503 176.473C378.254 176.473 377.241 175.461 377.241 174.213V156.778C377.241 155.53 378.254 154.518 379.503 154.518C380.752 154.518 381.765 155.529 381.765 156.778V174.213C381.765 175.461 380.753 176.473 379.503 176.473Z" fill="#455A64"/>
<path d="M368.521 165.496C368.521 164.247 369.534 163.235 370.782 163.235H388.225C389.474 163.235 390.487 164.247 390.487 165.496C390.487 166.744 389.474 167.757 388.225 167.757H370.782C369.533 167.757 368.521 166.744 368.521 165.496Z" fill="#455A64"/>
<path d="M188.432 125.758L162.287 114.95H162.246C162.54 113.246 161.134 111.654 159.34 111.823L150.125 112.686C147.111 112.968 144.165 113.74 141.399 114.97C138.919 116.074 137.412 118.628 137.647 121.332L137.957 124.885L138.828 128.534C139.079 129.581 139.525 130.564 140.116 131.455C140.12 131.474 140.122 131.492 140.127 131.511C140.4 132.646 140.932 133.575 141.526 134.091L141.927 145.036L128.425 146.661L106.174 171.762C104.061 173.671 102.972 176.464 103.239 179.299C103.481 181.879 104.821 184.23 106.917 185.754L131.592 203.691L134.886 200.271L134.888 200.281L131.814 203.69L134.381 208.187L110.176 291.715L111.248 291.95L109.945 296.105L109.265 296.249C108.574 296.395 107.903 296.624 107.267 296.929L96.625 302.043C97.8307 303.81 100.012 304.638 102.088 304.115C102.088 304.115 114.036 301.105 115.107 300.834C116.179 300.564 116.568 299.683 116.568 298.345C116.568 297.007 115.544 296.588 115.544 296.588L115.1 296.52L115.929 292.977L117.476 293.316L147.706 232.229L156.22 293.677L157.318 293.783L157.659 297.266L157.423 297.302C157.423 297.302 156.142 298.09 156.142 299.068C156.142 300.047 156.552 301.054 157.636 301.534C158.721 302.014 170.878 304.829 170.878 304.829C172.954 305.352 175.135 304.524 176.341 302.757L165.699 297.643C165.063 297.338 164.392 297.109 163.701 296.963L162.74 296.76L162.405 294.273L163.359 294.365L162.288 203.156L162.76 200.757L170.861 159.576C176.657 152.372 187.47 138.673 190.733 134.535C191.362 133.738 191.761 132.794 191.898 131.787C192.247 129.222 190.824 126.746 188.432 125.758ZM123.562 179.342L129.31 176.407L134.675 199.36L123.562 179.342ZM158.312 143.063L152.294 143.788V141.371C152.568 141.496 152.734 141.579 152.74 141.598C152.765 141.671 154.202 141.664 155.499 141.643C156.783 141.622 157.974 140.971 158.684 139.901L160.101 137.763C160.101 137.763 160.572 136.492 160.572 135.623C160.572 135.253 160.351 134.826 160.035 134.436C160.751 130.527 160.751 126.517 160.028 122.601C159.992 121.817 159.832 121.049 159.579 120.313C160.029 120.014 160.374 119.646 160.656 119.232L161.28 119.26L161.037 120.302L177.901 130.781L158.312 143.063Z" fill="#EBEBEB"/>
<path d="M152.047 143.063L127.512 146.015C124.064 146.43 120.887 148.093 118.585 150.691L99.9088 171.76C97.2083 174.199 96.1818 178.083 97.5164 181.652C98.1562 183.362 99.3555 184.809 100.833 185.883L125.327 203.689L128.621 200.27L129.421 203.689L156.022 203.154L166.417 150.312L152.047 143.063ZM117.296 179.342L123.045 176.407L128.409 199.36L117.296 179.342Z" fill="#71B219"/>
<path d="M151.157 297.3C151.157 297.3 149.876 298.089 149.876 299.067C149.876 300.046 150.286 301.054 151.37 301.533C152.455 302.012 164.612 304.828 164.612 304.828C166.688 305.351 168.869 304.523 170.075 302.756L159.433 297.642C158.797 297.337 158.126 297.108 157.435 296.962L155.745 296.604L151.157 297.3Z" fill="#263238"/>
<path d="M155.772 291.545L156.533 297.199C156.985 298.667 151.554 298.605 151.412 297.463L150.859 291.811L155.772 291.545Z" fill="#EDA6A6"/>
<path d="M157.092 294.36L149.958 293.675L134.921 203.507L137.562 203.462L156.023 203.154L157.085 293.729L157.092 294.36Z" fill="#263238"/>
<path d="M157.085 293.729L155.665 293.593C153.822 293.416 152.327 292.022 152.022 290.196L137.562 203.463L156.024 203.154L157.085 293.729Z" fill="#455A64"/>
<path d="M109.279 296.587C109.279 296.587 110.303 297.007 110.303 298.345C110.303 299.682 109.914 300.565 108.843 300.834C107.772 301.104 95.8235 304.115 95.8235 304.115C93.7478 304.638 91.566 303.81 90.3604 302.042L101.002 296.929C101.639 296.623 102.309 296.395 103 296.249L104.69 295.892L109.279 296.587Z" fill="#263238"/>
<path d="M105.295 290.957L103.645 296.218C102.936 297.77 108.152 299.111 108.686 297.155L109.979 291.625L105.295 290.957Z" fill="#EDA6A6"/>
<path d="M129.421 203.689L103.913 291.715L111.21 293.316L142.192 230.712V203.432L129.421 203.689Z" fill="#455A64"/>
<path d="M134.841 147.029L143.931 167.818L148.179 146.23C148.448 144.865 147.306 143.635 145.923 143.802L136.003 144.997C135.033 145.114 134.45 146.133 134.841 147.029Z" fill="#FFE9E9"/>
<path d="M156.022 203.154L156.494 200.755H128.735L129.744 203.689L156.022 203.154Z" fill="#263238"/>
<path d="M125.55 203.689L128.734 209.266L133.094 205.973C133.508 205.661 133.557 205.058 133.199 204.683L128.806 200.077L125.55 203.689Z" fill="#EDA6A6"/>
<path d="M136.744 145.438L136.292 133.099L145.857 138.214V145.045C142.695 146.195 139.637 146.496 136.744 145.438Z" fill="#EDA6A6"/>
<path d="M152.668 125.309C153.394 129.242 153.292 133.284 152.371 137.176L151.864 139.311C151.68 140.86 150.269 141.96 148.721 141.764L147.87 141.656C146.22 141.445 144.64 140.861 143.25 139.948L136.396 135.447L134.948 132.526C134.27 131.433 133.912 130.172 133.912 128.886V125.481C133.912 123.962 134.412 122.484 135.336 121.278C136.645 119.568 138.677 118.564 140.831 118.564H145.713C148.214 118.564 150.52 119.912 151.745 122.09C152.301 123.076 152.617 124.178 152.668 125.309Z" fill="#EDA6A6"/>
<path d="M134.003 130.531L133.235 127.319L132.962 124.191C132.755 121.81 134.081 119.561 136.266 118.59C138.7 117.507 141.295 116.828 143.947 116.579L152.061 115.819C153.758 115.659 155.065 117.291 154.537 118.912C153.762 121.289 153.527 123.47 150.413 123.965C147.298 124.459 143.304 125.093 143.304 125.093C141.957 125.37 140.701 125.978 139.651 126.862C139.651 126.862 137.247 129.856 136.893 131.719L135.974 134.182C135.01 133.159 134.33 131.9 134.003 130.531Z" fill="#263238"/>
<path d="M137.451 135.788C138.321 135.579 138.701 134.06 138.3 132.394C137.9 130.729 136.87 129.548 136 129.757C135.13 129.966 134.75 131.486 135.15 133.151C135.551 134.817 136.581 135.997 137.451 135.788Z" fill="#EDA6A6"/>
<path d="M137.844 118.572H154.656L153.77 122.367L146.25 122.027L140.829 120.928L137.844 118.572Z" fill="#EDA6A6"/>
<path d="M154.656 118.572L153.557 123.283L168.405 132.51L149.433 144.406C149.433 144.406 158.271 162.309 158.918 161.838C159.488 161.423 175.783 140.782 179.701 135.814C180.255 135.112 180.606 134.281 180.727 133.394C181.035 131.137 179.781 128.958 177.676 128.087L154.656 118.572Z" fill="#71B219"/>
<path d="M137.137 129.196V135.804C137.137 135.804 137.566 138.329 138.456 138.697C139.346 139.065 146.211 141.916 146.25 142.034C146.272 142.098 147.537 142.092 148.68 142.074C149.811 142.056 150.859 141.482 151.484 140.54L152.732 138.658C152.732 138.658 153.146 137.539 153.146 136.773C153.146 136.007 152.103 134.958 151.317 134.731C150.532 134.506 149.009 134.731 149.009 134.731C148.495 134.731 147.984 134.825 147.504 135.008L145.81 135.653C144.783 136.044 143.643 136.02 142.633 135.585L142.02 135.321C141.114 134.932 140.486 134.088 140.375 133.108L139.534 125.74L137.137 129.196Z" fill="#263238"/>
<path d="M142.838 200.471L142.614 203.432H148.261L148.588 200.471H142.838Z" fill="#FFE9E9"/>
<path d="M144.289 173.66C144.609 173.66 144.869 173.4 144.869 173.08C144.869 172.76 144.609 172.5 144.289 172.5C143.968 172.5 143.708 172.76 143.708 173.08C143.708 173.4 143.968 173.66 144.289 173.66Z" fill="#FFE9E9"/>
<path d="M144.289 179.501C144.609 179.501 144.869 179.242 144.869 178.922C144.869 178.601 144.609 178.342 144.289 178.342C143.968 178.342 143.708 178.601 143.708 178.922C143.708 179.242 143.968 179.501 144.289 179.501Z" fill="#FFE9E9"/>
<path d="M102.805 298.311C102.805 298.311 103.064 295.828 100.332 296.604" stroke="#F74F73" stroke-width="0.9575" stroke-miterlimit="10"/>
<path d="M99.9192 299.549C99.9192 299.549 100.178 297.066 97.4458 297.843" stroke="#F74F73" stroke-width="0.9575" stroke-miterlimit="10"/>
<path d="M157.042 299.43C157.508 298.659 158.633 297.455 160.827 298.312" stroke="#F74F73" stroke-width="0.9575" stroke-miterlimit="10"/>
<path d="M160.317 300.397C160.823 299.629 161.943 298.577 164.031 299.392" stroke="#F74F73" stroke-width="0.9575" stroke-miterlimit="10"/>
<path d="M140.146 234.844L145.106 223.727L141.725 244.314L140.027 234.445" fill="#000061"/>
<path d="M130.526 214.888L108.513 284.657" stroke="white" stroke-width="0.2394" stroke-miterlimit="10"/>
<path d="M153.709 208.396L155.172 282.024" stroke="white" stroke-width="0.2394" stroke-miterlimit="10"/>
<path d="M369.497 321.114H351.892C351.24 321.114 350.684 320.641 350.58 319.998L345.738 290.138C345.607 289.33 346.232 288.597 347.051 288.597H374.337C375.156 288.597 375.781 289.33 375.65 290.138L370.808 319.998C370.705 320.641 370.149 321.114 369.497 321.114Z" fill="#EBEBEB"/>
<path d="M362.424 293.522L364.175 284.171C371.183 276.695 375.286 265.413 376.456 252.807C376.586 251.4 376.667 250.003 376.694 248.62L371.227 250.776C371.227 250.776 374.099 248.201 376.698 245.925C376.48 235.834 373.684 226.621 369.082 219.54C361.951 227.019 356.896 238.138 355.713 250.884C355.649 251.565 355.598 252.24 355.562 252.917L360.814 261.29C360.671 261.18 357.62 258.798 355.458 257.056C355.556 267.314 358.32 276.701 362.942 283.918L362.054 293.488L362.424 293.522Z" fill="#EBEBEB"/>
<path d="M360.396 294.923L358.035 285.709C361.443 276.047 360.862 264.017 356.86 252.005C356.414 250.664 355.925 249.353 355.394 248.076L351.255 252.247C351.255 252.247 352.849 248.735 354.313 245.607C350.053 236.456 343.786 229.144 336.723 224.511C333.204 234.226 333.049 246.437 337.095 258.582C337.311 259.231 337.536 259.87 337.774 260.504L345.953 266.059C345.777 266.015 342.025 265.062 339.344 264.335C343.562 273.688 349.869 281.171 357.005 285.921L360.042 295.04L360.396 294.923Z" fill="#EBEBEB"/>
</g>
<defs>
<clipPath id="clip0">
<rect width="469" height="322" fill="white" transform="translate(0 0.673828)"/>
</clipPath>
</defs>
</svg>
